<?xml version="1.0" encoding="UTF-8"?>
<svg xmlns="http://www.w3.org/2000/svg" xmlns:xlink="http://www.w3.org/1999/xlink" width="160px" height="24px" viewBox="0 0 160 24" version="1.1">
<g id="surface1">
<path style=" stroke:none;fill-rule:nonzero;fill:rgb(81.568627%,0%,2.745098%);fill-opacity:1;" d="M 8.078125 0.878906 C 8.273438 1.042969 8.347656 1.242188 8.371094 1.488281 C 8.308594 2.269531 7.800781 2.957031 7.28125 3.511719 C 7.207031 3.589844 7.136719 3.671875 7.066406 3.757812 C 6.492188 4.414062 5.753906 4.894531 5 5.320312 C 6.496094 4.894531 7.835938 3.769531 8.601562 2.425781 C 8.789062 2.085938 8.910156 1.734375 9 1.359375 C 9.128906 1.464844 9.160156 1.578125 9.203125 1.734375 C 9.21875 1.78125 9.230469 1.824219 9.246094 1.871094 C 9.535156 2.949219 9.117188 3.9375 8.589844 4.859375 C 8.421875 5.144531 8.230469 5.414062 8.039062 5.679688 C 8.058594 5.664062 8.078125 5.648438 8.097656 5.628906 C 8.121094 5.609375 8.148438 5.589844 8.171875 5.566406 C 8.195312 5.542969 8.222656 5.523438 8.246094 5.5 C 8.308594 5.449219 8.375 5.394531 8.441406 5.34375 C 8.589844 5.214844 8.714844 5.074219 8.839844 4.921875 C 8.855469 4.898438 8.871094 4.878906 8.890625 4.859375 C 9.484375 4.121094 9.792969 3.351562 9.761719 2.398438 C 9.785156 2.398438 9.8125 2.398438 9.839844 2.398438 C 10.203125 3.085938 10.347656 3.726562 10.121094 4.492188 C 9.941406 4.992188 9.667969 5.441406 9.320312 5.839844 C 9.273438 5.894531 9.273438 5.894531 9.222656 5.953125 C 8.929688 6.28125 8.609375 6.558594 8.257812 6.824219 C 8.230469 6.847656 8.199219 6.867188 8.171875 6.890625 C 7.996094 7.023438 7.820312 7.152344 7.640625 7.28125 C 8.839844 6.601562 10.121094 5.632812 10.5625 4.265625 C 10.757812 3.511719 10.660156 2.914062 10.28125 2.238281 C 10.253906 2.1875 10.226562 2.132812 10.199219 2.078125 C 10.535156 1.914062 11.0625 2.0625 11.402344 2.171875 C 12.082031 2.414062 12.578125 2.933594 12.902344 3.5625 C 13.011719 3.8125 13.0625 4.054688 13.09375 4.324219 C 13.097656 4.351562 13.101562 4.378906 13.105469 4.410156 C 13.128906 4.660156 13.105469 4.90625 13.078125 5.160156 C 15.425781 6.152344 17.789062 6.882812 20.351562 6.980469 C 20.394531 6.984375 20.4375 6.984375 20.480469 6.988281 C 20.589844 6.992188 20.695312 6.996094 20.800781 7 C 20.800781 7.871094 20.804688 8.738281 20.804688 9.609375 C 20.804688 10.015625 20.804688 10.417969 20.804688 10.824219 C 20.808594 11.175781 20.808594 11.527344 20.808594 11.878906 C 20.808594 12.066406 20.808594 12.253906 20.808594 12.4375 C 20.816406 14.414062 20.816406 14.414062 20.636719 15.253906 C 20.628906 15.292969 20.621094 15.332031 20.613281 15.375 C 20.269531 16.925781 19.527344 18.394531 18.417969 19.539062 C 18.378906 19.582031 18.335938 19.625 18.296875 19.667969 C 17.484375 20.527344 16.472656 21.15625 15.441406 21.71875 C 15.402344 21.742188 15.363281 21.761719 15.324219 21.785156 C 14.800781 22.070312 14.273438 22.347656 13.742188 22.625 C 13.679688 22.65625 13.617188 22.6875 13.554688 22.722656 C 13.464844 22.765625 13.378906 22.8125 13.289062 22.859375 C 13.261719 22.871094 13.238281 22.886719 13.210938 22.898438 C 13.074219 22.96875 12.953125 23.027344 12.800781 23.039062 C 12.683594 22.984375 12.578125 22.917969 12.46875 22.851562 C 12.339844 22.792969 12.292969 22.792969 12.160156 22.839844 C 12.085938 22.878906 12.085938 22.878906 12.019531 22.925781 C 11.878906 23 11.878906 23 11.792969 22.996094 C 11.636719 22.945312 11.496094 22.875 11.351562 22.796875 C 11.316406 22.78125 11.285156 22.765625 11.253906 22.75 C 11.148438 22.695312 11.046875 22.640625 10.941406 22.585938 C 10.871094 22.550781 10.800781 22.515625 10.726562 22.476562 C 10.261719 22.234375 9.796875 21.992188 9.335938 21.734375 C 9.269531 21.695312 9.203125 21.660156 9.136719 21.621094 C 8.21875 21.113281 7.339844 20.546875 6.582031 19.816406 C 6.539062 19.777344 6.5 19.738281 6.457031 19.699219 C 5.671875 18.964844 4.921875 17.957031 4.601562 16.921875 C 4.882812 17.003906 5.164062 17.09375 5.445312 17.1875 C 5.484375 17.199219 5.523438 17.214844 5.5625 17.226562 C 5.652344 17.257812 5.746094 17.289062 5.839844 17.320312 C 5.820312 17.285156 5.820312 17.285156 5.800781 17.25 C 5.605469 16.894531 5.484375 16.503906 5.359375 16.121094 C 5.351562 16.089844 5.339844 16.0625 5.332031 16.03125 C 5 14.992188 4.976562 13.957031 5 12.878906 C 5.039062 12.871094 5.039062 12.871094 5.078125 12.859375 C 5.671875 12.703125 6.238281 12.527344 6.800781 12.28125 C 6.828125 12.269531 6.855469 12.253906 6.886719 12.242188 C 7.554688 11.953125 8.1875 11.570312 8.785156 11.15625 C 8.953125 11.039062 8.953125 11.039062 9.039062 11.039062 C 9.027344 11.542969 9.011719 12.042969 9 12.558594 C 8.417969 12.574219 8.417969 12.574219 8.234375 12.574219 C 8.1875 12.578125 8.140625 12.578125 8.089844 12.578125 C 8.015625 12.582031 8.015625 12.582031 7.941406 12.582031 C 7.722656 12.609375 7.570312 12.671875 7.410156 12.828125 C 7.210938 13.09375 7.179688 13.375 7.179688 13.699219 C 7.179688 13.738281 7.179688 13.777344 7.179688 13.816406 C 7.207031 15.054688 7.691406 16.417969 8.441406 17.398438 C 8.457031 17.421875 8.472656 17.441406 8.488281 17.464844 C 8.894531 18.015625 9.359375 18.484375 9.921875 18.878906 C 9.941406 18.894531 9.964844 18.910156 9.984375 18.925781 C 10.464844 19.265625 10.972656 19.550781 11.480469 19.839844 C 11.519531 19.863281 11.554688 19.882812 11.59375 19.90625 C 11.699219 19.964844 11.800781 20.019531 11.90625 20.078125 C 11.9375 20.09375 11.96875 20.113281 12 20.128906 C 12.042969 20.152344 12.042969 20.152344 12.089844 20.175781 C 12.113281 20.191406 12.136719 20.203125 12.164062 20.214844 C 12.355469 20.273438 12.523438 20.164062 12.691406 20.074219 C 12.714844 20.0625 12.742188 20.050781 12.765625 20.035156 C 12.84375 19.996094 12.921875 19.953125 13 19.910156 C 13.027344 19.894531 13.054688 19.882812 13.082031 19.867188 C 13.796875 19.480469 14.484375 19.070312 15.121094 18.558594 C 15.144531 18.539062 15.167969 18.519531 15.195312 18.5 C 16.449219 17.496094 17.292969 15.917969 17.480469 14.320312 C 17.484375 14.242188 17.488281 14.160156 17.492188 14.082031 C 17.511719 13.476562 17.648438 13.105469 18.039062 12.640625 C 17.964844 12.5625 17.828125 12.589844 17.726562 12.585938 C 17.683594 12.585938 17.683594 12.585938 17.640625 12.585938 C 17.554688 12.582031 17.464844 12.578125 17.378906 12.578125 C 17.316406 12.574219 17.257812 12.574219 17.199219 12.570312 C 17.050781 12.566406 16.90625 12.5625 16.761719 12.558594 C 16.757812 12.519531 16.757812 12.480469 16.757812 12.4375 C 16.757812 12.285156 16.753906 12.132812 16.75 11.980469 C 16.75 11.917969 16.75 11.851562 16.75 11.785156 C 16.742188 11.140625 16.644531 10.546875 16.359375 9.960938 C 16.34375 9.925781 16.324219 9.886719 16.308594 9.851562 C 15.851562 8.957031 15.066406 8.289062 14.117188 7.972656 C 13.945312 7.917969 13.773438 7.875 13.601562 7.839844 C 13.546875 7.828125 13.546875 7.828125 13.492188 7.816406 C 13.289062 7.792969 13.085938 7.792969 12.882812 7.796875 C 12.839844 7.792969 12.796875 7.792969 12.753906 7.792969 C 12.539062 7.792969 12.332031 7.800781 12.121094 7.839844 C 12.144531 7.65625 12.222656 7.503906 12.308594 7.34375 C 12.460938 7.050781 12.578125 6.753906 12.679688 6.441406 C 12.652344 6.492188 12.652344 6.492188 12.621094 6.542969 C 12.25 7.207031 11.839844 7.828125 11.324219 8.390625 C 11.246094 8.472656 11.175781 8.554688 11.101562 8.640625 C 10.835938 8.945312 10.546875 9.21875 10.238281 9.480469 C 10.203125 9.511719 10.167969 9.542969 10.132812 9.574219 C 8.515625 10.984375 6.257812 12.367188 4.039062 12.238281 C 3.550781 12.179688 3.140625 11.996094 2.824219 11.609375 C 2.398438 11.019531 2.410156 10.25 2.511719 9.554688 C 2.632812 8.867188 2.820312 8.128906 3.148438 7.507812 C 3.320312 7.203125 3.320312 7.203125 3.34375 6.867188 C 3.277344 6.660156 3.167969 6.480469 3.058594 6.296875 C 2.960938 6.136719 2.882812 5.96875 2.804688 5.800781 C 2.789062 5.769531 2.773438 5.738281 2.757812 5.707031 C 2.511719 5.175781 2.4375 4.691406 2.628906 4.128906 C 3.015625 3.167969 3.933594 2.4375 4.71875 1.800781 C 4.738281 1.859375 4.738281 1.859375 4.761719 1.921875 C 4.742188 1.933594 4.726562 1.945312 4.707031 1.957031 C 4.003906 2.519531 3.46875 3.5 3.359375 4.386719 C 3.347656 4.640625 3.382812 4.859375 3.519531 5.078125 C 3.730469 5.273438 3.9375 5.359375 4.222656 5.371094 C 4.253906 5.375 4.289062 5.375 4.324219 5.378906 C 4.359375 5.378906 4.394531 5.382812 4.429688 5.382812 C 4.464844 5.382812 4.5 5.386719 4.539062 5.386719 C 4.625 5.390625 4.710938 5.394531 4.800781 5.398438 C 4.804688 5.375 4.808594 5.351562 4.8125 5.324219 C 4.839844 5.238281 4.839844 5.238281 4.933594 5.175781 C 4.972656 5.15625 5.011719 5.132812 5.054688 5.113281 C 5.503906 4.863281 5.867188 4.507812 6.238281 4.160156 C 6.265625 4.136719 6.289062 4.113281 6.316406 4.089844 C 6.894531 3.542969 7.515625 2.699219 7.542969 1.886719 C 7.53125 1.585938 7.480469 1.441406 7.265625 1.226562 C 6.898438 0.996094 6.414062 1.054688 6 1.121094 C 6.011719 1.082031 6.027344 1.039062 6.039062 1 C 6.109375 0.964844 6.109375 0.964844 6.203125 0.9375 C 6.238281 0.925781 6.269531 0.917969 6.304688 0.90625 C 6.339844 0.894531 6.375 0.886719 6.410156 0.875 C 6.460938 0.859375 6.460938 0.859375 6.515625 0.84375 C 7 0.695312 7.625 0.585938 8.078125 0.878906 Z M 12.71875 6.199219 C 12.761719 6.320312 12.761719 6.320312 12.761719 6.320312 Z M 7.398438 7.359375 C 7.386719 7.386719 7.375 7.414062 7.359375 7.441406 C 7.398438 7.425781 7.4375 7.414062 7.480469 7.398438 C 7.453125 7.386719 7.425781 7.375 7.398438 7.359375 Z M 7.398438 7.359375 "/>
<path style=" stroke:none;fill-rule:nonzero;fill:rgb(8.627451%,8.235294%,13.72549%);fill-opacity:1;" d="M 8.078125 0.878906 C 8.273438 1.042969 8.347656 1.242188 8.371094 1.488281 C 8.308594 2.269531 7.800781 2.957031 7.28125 3.511719 C 7.207031 3.589844 7.136719 3.671875 7.066406 3.757812 C 6.492188 4.414062 5.753906 4.894531 5 5.320312 C 6.496094 4.894531 7.835938 3.769531 8.601562 2.425781 C 8.789062 2.085938 8.910156 1.734375 9 1.359375 C 9.128906 1.464844 9.160156 1.578125 9.203125 1.734375 C 9.21875 1.78125 9.230469 1.824219 9.246094 1.871094 C 9.535156 2.949219 9.117188 3.9375 8.589844 4.859375 C 8.421875 5.144531 8.230469 5.414062 8.039062 5.679688 C 8.058594 5.664062 8.078125 5.648438 8.097656 5.628906 C 8.121094 5.609375 8.148438 5.589844 8.171875 5.566406 C 8.195312 5.542969 8.222656 5.523438 8.246094 5.5 C 8.308594 5.449219 8.375 5.394531 8.441406 5.34375 C 8.589844 5.214844 8.714844 5.074219 8.839844 4.921875 C 8.855469 4.898438 8.871094 4.878906 8.890625 4.859375 C 9.484375 4.121094 9.792969 3.351562 9.761719 2.398438 C 9.785156 2.398438 9.8125 2.398438 9.839844 2.398438 C 10.203125 3.085938 10.347656 3.726562 10.121094 4.492188 C 9.941406 4.992188 9.667969 5.441406 9.320312 5.839844 C 9.273438 5.894531 9.273438 5.894531 9.222656 5.953125 C 8.929688 6.28125 8.609375 6.558594 8.257812 6.824219 C 8.230469 6.847656 8.199219 6.867188 8.171875 6.890625 C 7.996094 7.023438 7.820312 7.152344 7.640625 7.28125 C 8.839844 6.601562 10.121094 5.632812 10.5625 4.265625 C 10.757812 3.511719 10.660156 2.914062 10.28125 2.238281 C 10.253906 2.1875 10.226562 2.132812 10.199219 2.078125 C 10.535156 1.914062 11.0625 2.0625 11.402344 2.171875 C 12.082031 2.414062 12.578125 2.933594 12.902344 3.5625 C 13.214844 4.28125 13.132812 4.996094 12.90625 5.71875 C 12.882812 5.789062 12.863281 5.859375 12.84375 5.933594 C 12.597656 6.855469 11.960938 7.699219 11.324219 8.390625 C 11.246094 8.472656 11.175781 8.554688 11.101562 8.640625 C 10.835938 8.945312 10.546875 9.21875 10.238281 9.480469 C 10.203125 9.511719 10.167969 9.542969 10.132812 9.574219 C 8.515625 10.984375 6.257812 12.367188 4.039062 12.238281 C 3.550781 12.179688 3.140625 11.996094 2.824219 11.609375 C 2.398438 11.019531 2.410156 10.25 2.511719 9.554688 C 2.632812 8.867188 2.820312 8.128906 3.148438 7.507812 C 3.320312 7.203125 3.320312 7.203125 3.34375 6.867188 C 3.277344 6.660156 3.167969 6.480469 3.058594 6.296875 C 2.960938 6.136719 2.882812 5.96875 2.804688 5.800781 C 2.789062 5.769531 2.773438 5.738281 2.757812 5.707031 C 2.511719 5.175781 2.4375 4.691406 2.628906 4.128906 C 3.015625 3.167969 3.933594 2.4375 4.71875 1.800781 C 4.738281 1.859375 4.738281 1.859375 4.761719 1.921875 C 4.742188 1.933594 4.726562 1.945312 4.707031 1.957031 C 4.003906 2.519531 3.46875 3.5 3.359375 4.386719 C 3.347656 4.640625 3.382812 4.859375 3.519531 5.078125 C 3.730469 5.273438 3.9375 5.359375 4.222656 5.371094 C 4.253906 5.375 4.289062 5.375 4.324219 5.378906 C 4.359375 5.378906 4.394531 5.382812 4.429688 5.382812 C 4.464844 5.382812 4.5 5.386719 4.539062 5.386719 C 4.625 5.390625 4.710938 5.394531 4.800781 5.398438 C 4.804688 5.375 4.808594 5.351562 4.8125 5.324219 C 4.839844 5.238281 4.839844 5.238281 4.933594 5.175781 C 4.972656 5.15625 5.011719 5.132812 5.054688 5.113281 C 5.503906 4.863281 5.867188 4.507812 6.238281 4.160156 C 6.265625 4.136719 6.289062 4.113281 6.316406 4.089844 C 6.894531 3.542969 7.515625 2.699219 7.542969 1.886719 C 7.53125 1.585938 7.480469 1.441406 7.265625 1.226562 C 6.898438 0.996094 6.414062 1.054688 6 1.121094 C 6.011719 1.082031 6.027344 1.039062 6.039062 1 C 6.109375 0.964844 6.109375 0.964844 6.203125 0.9375 C 6.238281 0.925781 6.269531 0.917969 6.304688 0.90625 C 6.339844 0.894531 6.375 0.886719 6.410156 0.875 C 6.460938 0.859375 6.460938 0.859375 6.515625 0.84375 C 7 0.695312 7.625 0.585938 8.078125 0.878906 Z M 7.398438 7.359375 C 7.386719 7.386719 7.375 7.414062 7.359375 7.441406 C 7.398438 7.425781 7.4375 7.414062 7.480469 7.398438 C 7.453125 7.386719 7.425781 7.375 7.398438 7.359375 Z M 7.398438 7.359375 "/>
<path style=" stroke:none;fill-rule:nonzero;fill:rgb(0%,0%,0%);fill-opacity:1;" d="M 58.839844 10.199219 C 59.75 10.199219 60.660156 10.199219 61.601562 10.199219 C 61.808594 11.066406 62.011719 11.933594 62.210938 12.800781 C 62.222656 12.839844 62.230469 12.875 62.238281 12.914062 C 62.300781 13.183594 62.363281 13.449219 62.421875 13.71875 C 62.484375 13.992188 62.546875 14.261719 62.609375 14.535156 C 62.632812 14.644531 62.660156 14.75 62.683594 14.859375 C 62.699219 14.921875 62.714844 14.988281 62.726562 15.054688 C 62.734375 15.082031 62.742188 15.113281 62.75 15.144531 C 62.773438 15.257812 62.804688 15.367188 62.839844 15.480469 C 62.847656 15.453125 62.855469 15.425781 62.863281 15.398438 C 63.046875 14.75 63.230469 14.101562 63.417969 13.449219 C 63.507812 13.136719 63.59375 12.820312 63.683594 12.507812 C 63.761719 12.234375 63.839844 11.960938 63.917969 11.6875 C 63.960938 11.542969 64 11.398438 64.042969 11.25 C 64.085938 11.089844 64.132812 10.929688 64.179688 10.765625 C 64.191406 10.71875 64.207031 10.667969 64.222656 10.621094 C 64.238281 10.554688 64.238281 10.554688 64.257812 10.488281 C 64.273438 10.429688 64.273438 10.429688 64.292969 10.371094 C 64.320312 10.28125 64.320312 10.28125 64.359375 10.199219 C 65.125 10.199219 65.890625 10.199219 66.679688 10.199219 C 67 11.300781 67 11.300781 67.140625 11.828125 C 67.15625 11.886719 67.171875 11.945312 67.1875 12.007812 C 67.230469 12.160156 67.269531 12.3125 67.3125 12.464844 C 67.375 12.707031 67.441406 12.949219 67.503906 13.195312 C 67.527344 13.28125 67.550781 13.371094 67.574219 13.460938 C 67.65625 13.769531 67.738281 14.074219 67.824219 14.378906 C 67.832031 14.410156 67.839844 14.441406 67.851562 14.472656 C 67.890625 14.617188 67.929688 14.765625 67.972656 14.910156 C 67.984375 14.960938 68 15.015625 68.015625 15.066406 C 68.027344 15.113281 68.039062 15.15625 68.054688 15.203125 C 68.078125 15.320312 68.078125 15.320312 68.078125 15.480469 C 68.105469 15.480469 68.132812 15.480469 68.160156 15.480469 C 68.164062 15.4375 68.167969 15.394531 68.171875 15.351562 C 68.203125 15.121094 68.253906 14.898438 68.308594 14.671875 C 68.316406 14.625 68.328125 14.578125 68.339844 14.527344 C 68.371094 14.398438 68.398438 14.265625 68.429688 14.136719 C 68.460938 14 68.492188 13.863281 68.523438 13.726562 C 68.574219 13.496094 68.625 13.265625 68.679688 13.035156 C 68.738281 12.769531 68.800781 12.503906 68.859375 12.238281 C 68.917969 11.984375 68.976562 11.726562 69.035156 11.472656 C 69.058594 11.363281 69.085938 11.253906 69.109375 11.144531 C 69.144531 10.992188 69.179688 10.84375 69.214844 10.691406 C 69.222656 10.644531 69.234375 10.601562 69.246094 10.554688 C 69.253906 10.511719 69.261719 10.472656 69.273438 10.429688 C 69.28125 10.394531 69.289062 10.359375 69.296875 10.320312 C 69.320312 10.238281 69.320312 10.238281 69.359375 10.199219 C 69.445312 10.195312 69.527344 10.195312 69.609375 10.195312 C 69.648438 10.195312 69.648438 10.195312 69.691406 10.195312 C 69.777344 10.195312 69.863281 10.195312 69.949219 10.195312 C 70.011719 10.195312 70.070312 10.195312 70.128906 10.195312 C 70.289062 10.195312 70.445312 10.195312 70.605469 10.195312 C 70.765625 10.199219 70.929688 10.199219 71.089844 10.199219 C 71.40625 10.199219 71.722656 10.199219 72.039062 10.199219 C 71.949219 10.578125 71.851562 10.953125 71.738281 11.324219 C 71.71875 11.390625 71.71875 11.390625 71.699219 11.460938 C 71.671875 11.558594 71.640625 11.652344 71.613281 11.75 C 71.53125 12.019531 71.453125 12.289062 71.375 12.558594 C 71.363281 12.585938 71.355469 12.613281 71.347656 12.644531 C 71.136719 13.355469 70.929688 14.070312 70.722656 14.785156 C 70.632812 15.085938 70.546875 15.386719 70.460938 15.6875 C 70.449219 15.71875 70.441406 15.75 70.429688 15.785156 C 70.167969 16.683594 69.90625 17.582031 69.640625 18.480469 C 68.714844 18.480469 67.792969 18.480469 66.839844 18.480469 C 66.476562 17.160156 66.117188 15.84375 65.757812 14.523438 C 65.75 14.496094 65.742188 14.464844 65.734375 14.4375 C 65.636719 14.078125 65.539062 13.71875 65.441406 13.359375 C 65.261719 13.910156 65.109375 14.464844 64.960938 15.023438 C 64.933594 15.121094 64.90625 15.21875 64.878906 15.316406 C 64.804688 15.59375 64.726562 15.875 64.652344 16.15625 C 64.546875 16.539062 64.441406 16.925781 64.339844 17.308594 C 64.300781 17.449219 64.261719 17.59375 64.222656 17.738281 C 64.199219 17.824219 64.175781 17.910156 64.152344 17.996094 C 64.140625 18.035156 64.128906 18.078125 64.117188 18.117188 C 64.109375 18.152344 64.097656 18.191406 64.089844 18.226562 C 64.078125 18.273438 64.078125 18.273438 64.0625 18.324219 C 64.039062 18.398438 64.039062 18.398438 64 18.480469 C 63.089844 18.480469 62.179688 18.480469 61.238281 18.480469 C 61.167969 18.28125 61.097656 18.097656 61.039062 17.894531 C 61.03125 17.871094 61.023438 17.847656 61.019531 17.820312 C 60.992188 17.738281 60.96875 17.65625 60.945312 17.574219 C 60.929688 17.515625 60.910156 17.453125 60.894531 17.394531 C 60.847656 17.230469 60.800781 17.066406 60.753906 16.90625 C 60.710938 16.765625 60.671875 16.628906 60.632812 16.492188 C 60.203125 15.011719 59.777344 13.535156 59.347656 12.054688 C 59.328125 11.980469 59.304688 11.90625 59.285156 11.832031 C 59.226562 11.628906 59.167969 11.425781 59.109375 11.222656 C 59.078125 11.109375 59.042969 11 59.011719 10.886719 C 58.988281 10.808594 58.96875 10.730469 58.945312 10.652344 C 58.933594 10.617188 58.925781 10.582031 58.914062 10.542969 C 58.902344 10.511719 58.894531 10.476562 58.882812 10.441406 C 58.875 10.414062 58.867188 10.382812 58.859375 10.351562 C 58.839844 10.28125 58.839844 10.28125 58.839844 10.199219 Z M 58.839844 10.199219 "/>
<path style=" stroke:none;fill-rule:nonzero;fill:rgb(0%,0%,0%);fill-opacity:1;" d="M 93.761719 7 C 94.617188 7 95.476562 7 96.359375 7 C 96.359375 10.789062 96.359375 14.578125 96.359375 18.480469 C 95.503906 18.480469 94.644531 18.480469 93.761719 18.480469 C 93.746094 18.230469 93.734375 17.976562 93.71875 17.71875 C 93.679688 17.753906 93.636719 17.789062 93.59375 17.824219 C 92.773438 18.476562 91.980469 18.816406 90.921875 18.71875 C 90.171875 18.621094 89.566406 18.222656 89.109375 17.632812 C 88.679688 17.007812 88.4375 16.304688 88.320312 15.558594 C 88.3125 15.515625 88.304688 15.472656 88.296875 15.429688 C 88.183594 14.511719 88.195312 13.523438 88.480469 12.640625 C 88.488281 12.613281 88.496094 12.585938 88.503906 12.558594 C 88.699219 11.96875 88.980469 11.464844 89.398438 11 C 89.429688 10.96875 89.457031 10.9375 89.484375 10.902344 C 89.980469 10.375 90.753906 10 91.484375 9.953125 C 92.332031 9.925781 93.007812 10.105469 93.761719 10.480469 C 93.761719 9.332031 93.761719 8.183594 93.761719 7 Z M 91.4375 12.5 C 90.882812 13.21875 90.835938 14.21875 90.941406 15.085938 C 91.019531 15.625 91.148438 16.027344 91.558594 16.398438 C 91.925781 16.652344 92.371094 16.6875 92.800781 16.621094 C 93.097656 16.558594 93.347656 16.441406 93.601562 16.28125 C 93.628906 16.265625 93.65625 16.253906 93.683594 16.238281 C 93.808594 16.105469 93.78125 15.953125 93.777344 15.777344 C 93.777344 15.738281 93.777344 15.699219 93.777344 15.660156 C 93.777344 15.53125 93.777344 15.402344 93.777344 15.273438 C 93.773438 15.183594 93.773438 15.09375 93.773438 15.003906 C 93.773438 14.769531 93.773438 14.535156 93.769531 14.296875 C 93.769531 14.058594 93.769531 13.816406 93.769531 13.574219 C 93.765625 13.105469 93.761719 12.632812 93.761719 12.160156 C 93.703125 12.140625 93.644531 12.121094 93.585938 12.101562 C 93.539062 12.085938 93.539062 12.085938 93.492188 12.070312 C 92.773438 11.839844 91.96875 11.933594 91.4375 12.5 Z M 91.4375 12.5 "/>
<path style=" stroke:none;fill-rule:nonzero;fill:rgb(0%,0%,0%);fill-opacity:1;" d="M 102.878906 7.519531 C 109.347656 7.519531 109.347656 7.519531 110.398438 8.519531 C 110.449219 8.566406 110.449219 8.566406 110.496094 8.609375 C 111.125 9.257812 111.3125 10.128906 111.328125 11.003906 C 111.304688 12.0625 110.988281 13.042969 110.226562 13.796875 C 109.742188 14.253906 109.171875 14.558594 108.539062 14.75 C 108.515625 14.757812 108.488281 14.765625 108.460938 14.773438 C 108.042969 14.894531 107.617188 14.933594 107.183594 14.929688 C 107.125 14.925781 107.125 14.925781 107.0625 14.925781 C 106.917969 14.925781 106.773438 14.925781 106.628906 14.925781 C 106.300781 14.921875 105.976562 14.921875 105.640625 14.921875 C 105.640625 16.09375 105.640625 17.269531 105.640625 18.480469 C 104.730469 18.480469 103.820312 18.480469 102.878906 18.480469 C 102.878906 14.863281 102.878906 11.246094 102.878906 7.519531 Z M 105.640625 9.640625 C 105.640625 10.683594 105.640625 11.726562 105.640625 12.800781 C 106.933594 12.867188 106.933594 12.867188 108.054688 12.328125 C 108.421875 11.933594 108.464844 11.460938 108.453125 10.945312 C 108.433594 10.574219 108.308594 10.304688 108.050781 10.039062 C 107.398438 9.476562 106.414062 9.640625 105.640625 9.640625 Z M 105.640625 9.640625 "/>
<path style=" stroke:none;fill-rule:nonzero;fill:rgb(0%,0%,0%);fill-opacity:1;" d="M 25.601562 7.519531 C 32.066406 7.519531 32.066406 7.519531 33.121094 8.519531 C 33.167969 8.566406 33.167969 8.566406 33.214844 8.609375 C 33.847656 9.257812 34.03125 10.128906 34.050781 11.003906 C 34.027344 12.0625 33.707031 13.042969 32.945312 13.796875 C 32.464844 14.253906 31.894531 14.558594 31.261719 14.75 C 31.234375 14.757812 31.207031 14.765625 31.179688 14.773438 C 30.761719 14.894531 30.335938 14.933594 29.902344 14.929688 C 29.84375 14.925781 29.84375 14.925781 29.78125 14.925781 C 29.636719 14.925781 29.492188 14.925781 29.347656 14.925781 C 29.023438 14.921875 28.695312 14.921875 28.359375 14.921875 C 28.359375 16.09375 28.359375 17.269531 28.359375 18.480469 C 27.449219 18.480469 26.539062 18.480469 25.601562 18.480469 C 25.601562 14.863281 25.601562 11.246094 25.601562 7.519531 Z M 28.359375 9.640625 C 28.359375 10.683594 28.359375 11.726562 28.359375 12.800781 C 29.65625 12.867188 29.65625 12.867188 30.773438 12.328125 C 31.140625 11.933594 31.183594 11.460938 31.171875 10.945312 C 31.152344 10.574219 31.027344 10.304688 30.769531 10.039062 C 30.117188 9.476562 29.132812 9.640625 28.359375 9.640625 Z M 28.359375 9.640625 "/>
<path style=" stroke:none;fill-rule:nonzero;fill:rgb(0%,0%,0%);fill-opacity:1;" d="M 129.921875 7 C 130.777344 7 131.636719 7 132.519531 7 C 132.519531 8.332031 132.519531 9.667969 132.519531 11.039062 C 132.730469 10.882812 132.941406 10.722656 133.160156 10.558594 C 133.960938 10.066406 134.796875 9.820312 135.738281 10.007812 C 136.394531 10.171875 136.875 10.492188 137.242188 11.058594 C 137.632812 11.730469 137.6875 12.503906 137.683594 13.257812 C 137.683594 13.316406 137.683594 13.371094 137.683594 13.429688 C 137.683594 13.582031 137.683594 13.738281 137.683594 13.890625 C 137.683594 14.054688 137.683594 14.214844 137.683594 14.375 C 137.683594 14.679688 137.683594 14.988281 137.683594 15.292969 C 137.683594 15.703125 137.683594 16.117188 137.683594 16.53125 C 137.679688 17.179688 137.679688 17.832031 137.679688 18.480469 C 136.808594 18.480469 135.9375 18.480469 135.039062 18.480469 C 135.039062 18.128906 135.035156 17.777344 135.035156 17.417969 C 135.03125 17.164062 135.03125 16.914062 135.027344 16.660156 C 135.027344 16.335938 135.023438 16.011719 135.023438 15.683594 C 135.023438 15.425781 135.019531 15.167969 135.019531 14.910156 C 135.015625 14.773438 135.015625 14.636719 135.015625 14.503906 C 135.0625 13.417969 135.0625 13.417969 134.667969 12.445312 C 134.359375 12.199219 134.003906 12.175781 133.621094 12.214844 C 133.300781 12.273438 133.039062 12.386719 132.753906 12.539062 C 132.640625 12.601562 132.640625 12.601562 132.519531 12.640625 C 132.519531 14.566406 132.519531 16.496094 132.519531 18.480469 C 131.660156 18.480469 130.804688 18.480469 129.921875 18.480469 C 129.921875 14.691406 129.921875 10.902344 129.921875 7 Z M 129.921875 7 "/>
<path style=" stroke:none;fill-rule:nonzero;fill:rgb(0%,0%,0%);fill-opacity:1;" d="M 38.328125 9.949219 C 38.363281 9.949219 38.394531 9.949219 38.425781 9.949219 C 38.957031 9.949219 39.476562 9.980469 40 10.078125 C 40.042969 10.089844 40.042969 10.089844 40.089844 10.097656 C 40.785156 10.230469 41.550781 10.554688 41.960938 11.160156 C 42.019531 11.261719 42.074219 11.363281 42.128906 11.464844 C 42.148438 11.5 42.148438 11.5 42.171875 11.539062 C 42.394531 11.992188 42.417969 12.488281 42.414062 12.984375 C 42.414062 13.046875 42.414062 13.105469 42.414062 13.167969 C 42.414062 13.328125 42.414062 13.492188 42.414062 13.652344 C 42.410156 13.824219 42.410156 13.992188 42.410156 14.164062 C 42.410156 14.484375 42.410156 14.804688 42.410156 15.125 C 42.40625 15.492188 42.40625 15.859375 42.40625 16.222656 C 42.40625 16.976562 42.402344 17.726562 42.398438 18.480469 C 41.542969 18.480469 40.683594 18.480469 39.800781 18.480469 C 39.785156 18.230469 39.773438 17.976562 39.761719 17.71875 C 39.6875 17.785156 39.613281 17.851562 39.539062 17.921875 C 38.804688 18.554688 37.933594 18.769531 36.984375 18.726562 C 36.253906 18.671875 35.6875 18.328125 35.203125 17.796875 C 34.675781 17.136719 34.621094 16.371094 34.679688 15.558594 C 34.757812 14.929688 35.050781 14.414062 35.53125 14.003906 C 36.339844 13.398438 37.382812 13.226562 38.363281 13.125 C 38.457031 13.113281 38.550781 13.105469 38.648438 13.09375 C 39.042969 13.050781 39.441406 13.019531 39.839844 13 C 39.734375 12.527344 39.734375 12.527344 39.425781 12.171875 C 38.648438 11.730469 37.589844 11.816406 36.761719 12.039062 C 36.425781 12.136719 36.089844 12.238281 35.773438 12.386719 C 35.640625 12.441406 35.640625 12.441406 35.359375 12.441406 C 35.359375 11.753906 35.359375 11.066406 35.359375 10.359375 C 35.78125 10.253906 36.1875 10.160156 36.613281 10.09375 C 36.664062 10.085938 36.714844 10.074219 36.765625 10.066406 C 37.289062 9.980469 37.800781 9.949219 38.328125 9.949219 Z M 37.601562 15.152344 C 37.339844 15.441406 37.300781 15.671875 37.308594 16.054688 C 37.328125 16.332031 37.421875 16.484375 37.628906 16.664062 C 37.886719 16.816406 38.15625 16.863281 38.449219 16.859375 C 38.484375 16.859375 38.515625 16.859375 38.550781 16.859375 C 38.851562 16.851562 39.089844 16.777344 39.359375 16.640625 C 39.398438 16.621094 39.4375 16.605469 39.480469 16.589844 C 39.621094 16.511719 39.703125 16.449219 39.800781 16.320312 C 39.875 16.042969 39.839844 15.742188 39.828125 15.460938 C 39.824219 15.378906 39.824219 15.300781 39.820312 15.222656 C 39.816406 15.027344 39.808594 14.832031 39.800781 14.640625 C 39.160156 14.628906 38.089844 14.691406 37.601562 15.152344 Z M 37.601562 15.152344 "/>
<path style=" stroke:none;fill-rule:nonzero;fill:rgb(0%,0%,0%);fill-opacity:1;" d="M 145.960938 10.71875 C 145.984375 10.738281 146.003906 10.753906 146.027344 10.769531 C 146.679688 11.277344 146.972656 12.140625 147.109375 12.921875 C 147.175781 13.570312 147.160156 14.226562 147.160156 14.878906 C 145.3125 14.878906 143.464844 14.878906 141.558594 14.878906 C 141.683594 15.492188 141.796875 15.988281 142.324219 16.34375 C 143.15625 16.847656 144.183594 16.835938 145.101562 16.613281 C 145.59375 16.46875 146.039062 16.265625 146.457031 15.96875 C 146.480469 15.953125 146.507812 15.933594 146.53125 15.917969 C 146.550781 15.902344 146.574219 15.886719 146.59375 15.871094 C 146.679688 15.839844 146.679688 15.839844 147 15.839844 C 147 16.566406 147 17.292969 147 18.039062 C 145.289062 18.816406 143.1875 19.023438 141.398438 18.359375 C 141.179688 18.269531 140.96875 18.15625 140.761719 18.039062 C 140.722656 18.019531 140.683594 18 140.640625 17.976562 C 139.847656 17.519531 139.320312 16.691406 139.074219 15.824219 C 138.757812 14.472656 138.851562 12.976562 139.558594 11.761719 C 139.691406 11.558594 139.84375 11.378906 140 11.199219 C 140.027344 11.167969 140.058594 11.132812 140.085938 11.097656 C 141.4375 9.644531 144.445312 9.429688 145.960938 10.71875 Z M 141.933594 12.152344 C 141.667969 12.480469 141.597656 12.824219 141.519531 13.238281 C 142.535156 13.238281 143.554688 13.238281 144.601562 13.238281 C 144.5 12.484375 144.5 12.484375 144.046875 11.902344 C 143.40625 11.476562 142.453125 11.589844 141.933594 12.152344 Z M 141.933594 12.152344 "/>
<path style=" stroke:none;fill-rule:nonzero;fill:rgb(0%,0%,0%);fill-opacity:1;" d="M 79.640625 10.839844 C 79.664062 10.859375 79.691406 10.878906 79.71875 10.898438 C 80.492188 11.515625 80.867188 12.542969 80.988281 13.496094 C 81.128906 14.757812 81.019531 16.171875 80.226562 17.222656 C 80.179688 17.28125 80.128906 17.339844 80.078125 17.398438 C 80.054688 17.433594 80.027344 17.464844 80 17.496094 C 79.328125 18.300781 78.328125 18.648438 77.308594 18.75 C 76.050781 18.855469 74.789062 18.621094 73.800781 17.800781 C 72.960938 17.066406 72.5625 15.96875 72.480469 14.878906 C 72.417969 13.4375 72.648438 12.171875 73.605469 11.058594 C 75.0625 9.496094 78.035156 9.554688 79.640625 10.839844 Z M 75.828125 12.128906 C 75.191406 12.785156 75.140625 13.648438 75.144531 14.519531 C 75.160156 15.277344 75.269531 16 75.832031 16.550781 C 76.054688 16.707031 76.289062 16.816406 76.558594 16.839844 C 76.589844 16.84375 76.617188 16.84375 76.644531 16.847656 C 77.027344 16.867188 77.433594 16.761719 77.730469 16.511719 C 78.3125 15.921875 78.375 15.074219 78.371094 14.285156 C 78.355469 13.519531 78.253906 12.746094 77.71875 12.160156 C 77.222656 11.75 76.328125 11.695312 75.828125 12.128906 Z M 75.828125 12.128906 "/>
<path style=" stroke:none;fill-rule:nonzero;fill:rgb(0%,0%,0%);fill-opacity:1;" d="M 112.480469 10.199219 C 113.351562 10.199219 114.222656 10.199219 115.121094 10.199219 C 115.121094 10.554688 115.121094 10.90625 115.125 11.269531 C 115.125 11.523438 115.128906 11.777344 115.128906 12.03125 C 115.132812 12.359375 115.132812 12.6875 115.132812 13.015625 C 115.136719 13.273438 115.136719 13.535156 115.136719 13.792969 C 115.140625 13.933594 115.140625 14.070312 115.140625 14.207031 C 115.097656 15.277344 115.097656 15.277344 115.480469 16.238281 C 115.796875 16.464844 116.140625 16.511719 116.519531 16.480469 C 116.914062 16.398438 117.238281 16.222656 117.601562 16.039062 C 117.613281 14.113281 117.625 12.1875 117.640625 10.199219 C 118.496094 10.199219 119.355469 10.199219 120.238281 10.199219 C 120.238281 12.933594 120.238281 15.664062 120.238281 18.480469 C 119.382812 18.480469 118.523438 18.480469 117.640625 18.480469 C 117.625 18.214844 117.613281 17.953125 117.601562 17.679688 C 117.507812 17.75 117.414062 17.824219 117.320312 17.898438 C 116.492188 18.523438 115.636719 18.839844 114.585938 18.707031 C 113.921875 18.589844 113.378906 18.28125 112.988281 17.730469 C 112.386719 16.773438 112.472656 15.625 112.476562 14.539062 C 112.476562 14.386719 112.476562 14.234375 112.476562 14.082031 C 112.476562 13.792969 112.476562 13.503906 112.476562 13.214844 C 112.476562 12.824219 112.476562 12.433594 112.476562 12.042969 C 112.476562 11.429688 112.480469 10.8125 112.480469 10.199219 Z M 112.480469 10.199219 "/>
<path style=" stroke:none;fill-rule:nonzero;fill:rgb(95.686275%,0%,2.352941%);fill-opacity:1;" d="M 13.039062 5.160156 C 13.109375 5.1875 13.109375 5.1875 13.179688 5.214844 C 13.398438 5.304688 13.621094 5.390625 13.839844 5.480469 C 13.878906 5.496094 13.917969 5.511719 13.957031 5.527344 C 15.648438 6.199219 17.378906 6.730469 19.199219 6.90625 C 19.246094 6.914062 19.296875 6.917969 19.347656 6.921875 C 19.679688 6.953125 20.007812 6.96875 20.339844 6.980469 C 20.386719 6.984375 20.429688 6.984375 20.476562 6.988281 C 20.582031 6.992188 20.691406 6.996094 20.800781 7 C 20.800781 7.871094 20.804688 8.738281 20.804688 9.609375 C 20.804688 10.015625 20.804688 10.417969 20.804688 10.824219 C 20.808594 11.175781 20.808594 11.527344 20.808594 11.878906 C 20.808594 12.066406 20.808594 12.253906 20.808594 12.4375 C 20.816406 14.414062 20.816406 14.414062 20.636719 15.253906 C 20.628906 15.292969 20.621094 15.332031 20.613281 15.375 C 20.269531 16.925781 19.527344 18.394531 18.417969 19.539062 C 18.378906 19.582031 18.335938 19.625 18.296875 19.667969 C 17.484375 20.527344 16.472656 21.15625 15.441406 21.71875 C 15.402344 21.742188 15.363281 21.761719 15.324219 21.785156 C 14.800781 22.070312 14.273438 22.347656 13.742188 22.625 C 13.679688 22.65625 13.617188 22.6875 13.554688 22.722656 C 13.464844 22.765625 13.378906 22.8125 13.289062 22.859375 C 13.261719 22.871094 13.238281 22.886719 13.210938 22.898438 C 13.074219 22.96875 12.953125 23.027344 12.800781 23.039062 C 12.675781 22.984375 12.675781 22.984375 12.546875 22.902344 C 12.503906 22.875 12.460938 22.851562 12.417969 22.824219 C 12.371094 22.792969 12.371094 22.792969 12.320312 22.761719 C 12.410156 22.660156 12.496094 22.605469 12.613281 22.542969 C 12.648438 22.527344 12.683594 22.507812 12.722656 22.488281 C 12.757812 22.46875 12.796875 22.449219 12.835938 22.429688 C 12.921875 22.386719 13.003906 22.34375 13.089844 22.300781 C 13.132812 22.277344 13.175781 22.253906 13.222656 22.230469 C 14.863281 21.378906 16.550781 20.476562 17.71875 19 C 17.75 18.960938 17.785156 18.921875 17.816406 18.882812 C 18.097656 18.527344 18.332031 18.152344 18.558594 17.761719 C 18.582031 17.722656 18.582031 17.722656 18.601562 17.6875 C 19.496094 16.1875 19.707031 14.511719 19.695312 12.804688 C 19.695312 12.636719 19.695312 12.46875 19.695312 12.296875 C 19.695312 11.976562 19.691406 11.660156 19.691406 11.339844 C 19.691406 10.972656 19.6875 10.609375 19.6875 10.246094 C 19.6875 9.496094 19.683594 8.75 19.679688 8 C 19.675781 8.035156 19.675781 8.035156 19.667969 8.074219 C 19.652344 8.183594 19.636719 8.292969 19.621094 8.40625 C 19.617188 8.441406 19.613281 8.480469 19.605469 8.519531 C 19.484375 9.363281 19.3125 10.179688 18.960938 10.960938 C 18.933594 11.019531 18.90625 11.082031 18.882812 11.140625 C 18.726562 11.496094 18.5625 11.84375 18.382812 12.183594 C 18.367188 12.21875 18.347656 12.25 18.332031 12.285156 C 18.210938 12.507812 18.210938 12.507812 18.121094 12.601562 C 18.015625 12.605469 17.917969 12.605469 17.816406 12.597656 C 17.785156 12.597656 17.753906 12.597656 17.722656 12.597656 C 17.628906 12.59375 17.53125 12.589844 17.433594 12.585938 C 17.371094 12.582031 17.304688 12.582031 17.238281 12.578125 C 17.078125 12.574219 16.917969 12.566406 16.761719 12.558594 C 16.757812 12.519531 16.757812 12.480469 16.757812 12.4375 C 16.757812 12.285156 16.753906 12.132812 16.75 11.980469 C 16.75 11.917969 16.75 11.851562 16.75 11.785156 C 16.742188 11.140625 16.644531 10.546875 16.359375 9.960938 C 16.34375 9.925781 16.324219 9.886719 16.308594 9.851562 C 15.851562 8.957031 15.066406 8.289062 14.117188 7.972656 C 13.945312 7.917969 13.773438 7.875 13.601562 7.839844 C 13.566406 7.832031 13.527344 7.824219 13.492188 7.816406 C 13.289062 7.792969 13.085938 7.792969 12.882812 7.796875 C 12.839844 7.792969 12.796875 7.792969 12.753906 7.792969 C 12.539062 7.792969 12.332031 7.800781 12.121094 7.839844 C 12.148438 7.625 12.25 7.453125 12.351562 7.265625 C 12.59375 6.800781 12.726562 6.296875 12.851562 5.789062 C 12.871094 5.703125 12.890625 5.617188 12.914062 5.535156 C 12.933594 5.460938 12.949219 5.382812 12.96875 5.308594 C 13 5.199219 13 5.199219 13.039062 5.160156 Z M 13.039062 5.160156 "/>
<path style=" stroke:none;fill-rule:nonzero;fill:rgb(0%,0%,0%);fill-opacity:1;" d="M 128.320312 10.519531 C 128.359375 10.558594 128.359375 10.558594 128.363281 10.648438 C 128.363281 10.683594 128.363281 10.722656 128.363281 10.761719 C 128.363281 10.804688 128.363281 10.847656 128.363281 10.894531 C 128.363281 10.941406 128.363281 10.988281 128.363281 11.035156 C 128.363281 11.109375 128.363281 11.109375 128.363281 11.179688 C 128.363281 11.335938 128.363281 11.488281 128.363281 11.640625 C 128.363281 11.746094 128.363281 11.851562 128.363281 11.953125 C 128.363281 12.210938 128.359375 12.464844 128.359375 12.71875 C 128.058594 12.726562 128.058594 12.726562 127.914062 12.605469 C 127.414062 12.230469 126.8125 11.992188 126.199219 11.878906 C 126.160156 11.871094 126.121094 11.863281 126.082031 11.855469 C 125.5625 11.785156 124.984375 11.800781 124.542969 12.109375 C 124.457031 12.175781 124.40625 12.222656 124.359375 12.320312 C 124.34375 12.484375 124.34375 12.59375 124.398438 12.75 C 124.578125 12.949219 124.855469 13.027344 125.109375 13.09375 C 125.140625 13.101562 125.171875 13.113281 125.199219 13.121094 C 125.441406 13.183594 125.6875 13.234375 125.933594 13.285156 C 126.859375 13.476562 127.761719 13.71875 128.355469 14.515625 C 128.707031 15.054688 128.777344 15.730469 128.679688 16.359375 C 128.53125 17.042969 128.144531 17.601562 127.566406 17.992188 C 126.257812 18.835938 124.589844 18.894531 123.101562 18.578125 C 122.59375 18.464844 122.066406 18.3125 121.601562 18.078125 C 121.601562 17.328125 121.601562 16.574219 121.601562 15.800781 C 121.910156 15.800781 121.910156 15.800781 122.097656 15.960938 C 122.925781 16.628906 124.03125 16.914062 125.078125 16.839844 C 125.382812 16.800781 125.691406 16.734375 125.921875 16.519531 C 126.015625 16.367188 126.03125 16.214844 126 16.039062 C 125.871094 15.789062 125.660156 15.738281 125.402344 15.648438 C 125.148438 15.570312 124.886719 15.519531 124.625 15.464844 C 123.707031 15.273438 122.597656 15.039062 122.039062 14.199219 C 121.871094 13.90625 121.722656 13.617188 121.679688 13.28125 C 121.675781 13.25 121.671875 13.222656 121.667969 13.191406 C 121.65625 13.101562 121.648438 13.011719 121.640625 12.921875 C 121.636719 12.890625 121.636719 12.859375 121.632812 12.828125 C 121.609375 12.175781 121.832031 11.597656 122.257812 11.105469 C 123.742188 9.582031 126.515625 9.664062 128.320312 10.519531 Z M 128.320312 10.519531 "/>
<path style=" stroke:none;fill-rule:nonzero;fill:rgb(0%,0%,0%);fill-opacity:1;" d="M 58.160156 10.519531 C 58.199219 10.558594 58.199219 10.558594 58.203125 10.648438 C 58.203125 10.683594 58.203125 10.722656 58.203125 10.761719 C 58.203125 10.804688 58.203125 10.847656 58.203125 10.894531 C 58.203125 10.941406 58.203125 10.988281 58.203125 11.035156 C 58.203125 11.109375 58.203125 11.109375 58.203125 11.179688 C 58.203125 11.335938 58.203125 11.488281 58.203125 11.640625 C 58.203125 11.746094 58.203125 11.851562 58.203125 11.953125 C 58.203125 12.210938 58.199219 12.464844 58.199219 12.71875 C 57.898438 12.726562 57.898438 12.726562 57.753906 12.605469 C 57.253906 12.230469 56.652344 11.992188 56.039062 11.878906 C 56 11.871094 55.960938 11.863281 55.921875 11.855469 C 55.40625 11.785156 54.824219 11.800781 54.382812 12.109375 C 54.300781 12.175781 54.246094 12.222656 54.199219 12.320312 C 54.183594 12.484375 54.183594 12.59375 54.238281 12.75 C 54.417969 12.949219 54.699219 13.027344 54.949219 13.09375 C 54.980469 13.101562 55.011719 13.113281 55.042969 13.121094 C 55.28125 13.183594 55.527344 13.234375 55.773438 13.285156 C 56.699219 13.476562 57.601562 13.71875 58.195312 14.515625 C 58.546875 15.054688 58.617188 15.730469 58.519531 16.359375 C 58.371094 17.042969 57.984375 17.601562 57.40625 17.992188 C 56.097656 18.835938 54.429688 18.894531 52.941406 18.578125 C 52.433594 18.464844 51.90625 18.3125 51.441406 18.078125 C 51.441406 17.328125 51.441406 16.574219 51.441406 15.800781 C 51.75 15.800781 51.75 15.800781 51.9375 15.960938 C 52.765625 16.628906 53.871094 16.914062 54.921875 16.839844 C 55.222656 16.800781 55.53125 16.734375 55.761719 16.519531 C 55.855469 16.367188 55.871094 16.214844 55.839844 16.039062 C 55.710938 15.789062 55.5 15.738281 55.242188 15.648438 C 54.988281 15.570312 54.726562 15.519531 54.464844 15.464844 C 53.546875 15.273438 52.4375 15.039062 51.878906 14.199219 C 51.714844 13.90625 51.5625 13.617188 51.519531 13.28125 C 51.515625 13.25 51.511719 13.222656 51.507812 13.191406 C 51.496094 13.101562 51.488281 13.011719 51.480469 12.921875 C 51.476562 12.890625 51.476562 12.859375 51.472656 12.828125 C 51.449219 12.175781 51.671875 11.597656 52.097656 11.105469 C 53.582031 9.582031 56.355469 9.664062 58.160156 10.519531 Z M 58.160156 10.519531 "/>
<path style=" stroke:none;fill-rule:nonzero;fill:rgb(0%,0%,0%);fill-opacity:1;" d="M 50.441406 10.519531 C 50.480469 10.558594 50.480469 10.558594 50.484375 10.648438 C 50.484375 10.683594 50.484375 10.722656 50.484375 10.761719 C 50.484375 10.804688 50.484375 10.847656 50.484375 10.894531 C 50.484375 10.941406 50.484375 10.988281 50.484375 11.035156 C 50.484375 11.109375 50.484375 11.109375 50.484375 11.179688 C 50.484375 11.335938 50.484375 11.488281 50.484375 11.640625 C 50.480469 11.746094 50.480469 11.851562 50.480469 11.953125 C 50.480469 12.210938 50.480469 12.464844 50.480469 12.71875 C 50.179688 12.726562 50.179688 12.726562 50.035156 12.605469 C 49.535156 12.230469 48.929688 11.992188 48.320312 11.878906 C 48.28125 11.871094 48.242188 11.863281 48.203125 11.855469 C 47.683594 11.785156 47.101562 11.800781 46.664062 12.109375 C 46.578125 12.175781 46.523438 12.222656 46.480469 12.320312 C 46.464844 12.484375 46.464844 12.59375 46.519531 12.75 C 46.699219 12.949219 46.976562 13.027344 47.230469 13.09375 C 47.261719 13.101562 47.289062 13.113281 47.320312 13.121094 C 47.5625 13.183594 47.808594 13.234375 48.050781 13.285156 C 48.980469 13.476562 49.882812 13.71875 50.476562 14.515625 C 50.828125 15.054688 50.898438 15.730469 50.800781 16.359375 C 50.652344 17.042969 50.265625 17.601562 49.6875 17.992188 C 48.378906 18.835938 46.710938 18.894531 45.222656 18.578125 C 44.714844 18.464844 44.183594 18.3125 43.71875 18.078125 C 43.71875 17.328125 43.71875 16.574219 43.71875 15.800781 C 44.03125 15.800781 44.03125 15.800781 44.21875 15.960938 C 45.042969 16.628906 46.152344 16.914062 47.199219 16.839844 C 47.503906 16.800781 47.808594 16.734375 48.039062 16.519531 C 48.132812 16.367188 48.148438 16.214844 48.121094 16.039062 C 47.992188 15.789062 47.78125 15.738281 47.523438 15.648438 C 47.269531 15.570312 47.007812 15.519531 46.746094 15.464844 C 45.824219 15.273438 44.71875 15.039062 44.160156 14.199219 C 43.992188 13.90625 43.84375 13.617188 43.800781 13.28125 C 43.796875 13.25 43.792969 13.222656 43.785156 13.191406 C 43.773438 13.101562 43.765625 13.011719 43.761719 12.921875 C 43.757812 12.890625 43.753906 12.859375 43.753906 12.828125 C 43.730469 12.175781 43.953125 11.597656 44.375 11.105469 C 45.863281 9.582031 48.632812 9.664062 50.441406 10.519531 Z M 50.441406 10.519531 "/>
<path style=" stroke:none;fill-rule:nonzero;fill:rgb(0%,0%,0%);fill-opacity:1;" d="M 154 10.199219 C 154 11.019531 154 11.835938 154 12.679688 C 153.640625 12.679688 153.640625 12.679688 153.507812 12.660156 C 152.714844 12.546875 151.984375 12.675781 151.238281 12.9375 C 151.160156 12.960938 151.160156 12.960938 151.039062 12.960938 C 151.039062 14.78125 151.039062 16.601562 151.039062 18.480469 C 150.183594 18.480469 149.324219 18.480469 148.441406 18.480469 C 148.441406 15.746094 148.441406 13.015625 148.441406 10.199219 C 149.296875 10.199219 150.15625 10.199219 151.039062 10.199219 C 151.054688 10.554688 151.066406 10.914062 151.078125 11.28125 C 151.167969 11.207031 151.257812 11.136719 151.347656 11.058594 C 152.039062 10.503906 153.074219 9.890625 154 10.199219 Z M 154 10.199219 "/>
<path style=" stroke:none;fill-rule:nonzero;fill:rgb(0%,0%,0%);fill-opacity:1;" d="M 87.921875 10.199219 C 87.921875 11.019531 87.921875 11.835938 87.921875 12.679688 C 87.558594 12.679688 87.558594 12.679688 87.429688 12.660156 C 86.636719 12.546875 85.902344 12.675781 85.15625 12.9375 C 85.078125 12.960938 85.078125 12.960938 84.960938 12.960938 C 84.960938 14.78125 84.960938 16.601562 84.960938 18.480469 C 84.101562 18.480469 83.242188 18.480469 82.359375 18.480469 C 82.359375 15.746094 82.359375 13.015625 82.359375 10.199219 C 83.21875 10.199219 84.074219 10.199219 84.960938 10.199219 C 84.972656 10.554688 84.988281 10.914062 85 11.28125 C 85.089844 11.207031 85.175781 11.136719 85.265625 11.058594 C 85.957031 10.503906 86.992188 9.890625 87.921875 10.199219 Z M 87.921875 10.199219 "/>
<path style=" stroke:none;fill-rule:nonzero;fill:rgb(95.686275%,0%,2.352941%);fill-opacity:1;" d="M 9.039062 11.039062 C 9.027344 11.542969 9.011719 12.042969 9 12.558594 C 8.417969 12.574219 8.417969 12.574219 8.234375 12.574219 C 8.1875 12.578125 8.140625 12.578125 8.089844 12.578125 C 8.015625 12.582031 8.015625 12.582031 7.941406 12.582031 C 7.722656 12.609375 7.570312 12.671875 7.410156 12.828125 C 7.210938 13.09375 7.179688 13.375 7.179688 13.699219 C 7.179688 13.738281 7.179688 13.777344 7.179688 13.816406 C 7.207031 15.054688 7.691406 16.417969 8.441406 17.398438 C 8.457031 17.421875 8.472656 17.441406 8.488281 17.464844 C 8.894531 18.015625 9.359375 18.484375 9.921875 18.878906 C 9.941406 18.894531 9.964844 18.910156 9.984375 18.925781 C 10.625 19.378906 11.3125 19.769531 12.015625 20.117188 C 12.234375 20.226562 12.234375 20.226562 12.28125 20.359375 C 12.21875 20.394531 12.15625 20.429688 12.09375 20.460938 C 12.058594 20.480469 12.023438 20.5 11.988281 20.519531 C 11.832031 20.578125 11.730469 20.542969 11.582031 20.480469 C 11.550781 20.464844 11.515625 20.445312 11.484375 20.429688 C 11.445312 20.410156 11.40625 20.390625 11.367188 20.371094 C 11.328125 20.351562 11.285156 20.332031 11.246094 20.308594 C 11.203125 20.289062 11.160156 20.265625 11.117188 20.246094 C 9.972656 19.664062 8.847656 19.015625 7.921875 18.121094 C 7.890625 18.089844 7.859375 18.0625 7.828125 18.03125 C 7.648438 17.855469 7.648438 17.855469 7.601562 17.761719 C 7.484375 17.738281 7.367188 17.722656 7.25 17.707031 C 6.945312 17.664062 6.644531 17.613281 6.34375 17.546875 C 6.308594 17.539062 6.273438 17.535156 6.234375 17.527344 C 6.050781 17.484375 5.917969 17.441406 5.800781 17.277344 C 5.714844 17.117188 5.648438 16.949219 5.582031 16.78125 C 5.558594 16.71875 5.558594 16.71875 5.535156 16.65625 C 5.070312 15.410156 4.972656 14.195312 5 12.878906 C 5.027344 12.875 5.050781 12.867188 5.078125 12.859375 C 5.671875 12.703125 6.238281 12.527344 6.800781 12.28125 C 6.828125 12.269531 6.855469 12.253906 6.886719 12.242188 C 7.554688 11.953125 8.1875 11.570312 8.785156 11.15625 C 8.953125 11.039062 8.953125 11.039062 9.039062 11.039062 Z M 9.039062 11.039062 "/>
<path style=" stroke:none;fill-rule:nonzero;fill:rgb(95.686275%,0%,2.352941%);fill-opacity:1;" d="M 14.542969 9.980469 C 15.289062 10.753906 15.199219 11.476562 15.199219 12.558594 C 13.667969 12.558594 12.136719 12.558594 10.558594 12.558594 C 10.558594 10.671875 10.558594 10.671875 11.230469 9.945312 C 11.578125 9.625 11.980469 9.425781 12.441406 9.320312 C 12.46875 9.3125 12.496094 9.308594 12.523438 9.300781 C 13.277344 9.167969 14.003906 9.472656 14.542969 9.980469 Z M 14.542969 9.980469 "/>
<path style=" stroke:none;fill-rule:nonzero;fill:rgb(8.627451%,8.235294%,13.72549%);fill-opacity:1;" d="M 14.019531 14.558594 C 14.335938 14.816406 14.558594 15.148438 14.609375 15.558594 C 14.652344 16.0625 14.5625 16.460938 14.234375 16.855469 C 14.003906 17.089844 13.761719 17.261719 13.441406 17.320312 C 13.441406 17.363281 13.441406 17.410156 13.441406 17.457031 C 13.445312 17.621094 13.449219 17.789062 13.449219 17.957031 C 13.453125 18.027344 13.453125 18.101562 13.457031 18.171875 C 13.457031 18.277344 13.457031 18.378906 13.460938 18.484375 C 13.460938 18.515625 13.460938 18.546875 13.460938 18.582031 C 13.460938 18.746094 13.449219 18.847656 13.34375 18.980469 C 13.238281 19.078125 13.238281 19.078125 13.148438 19.109375 C 13.105469 19.109375 13.105469 19.109375 13.058594 19.109375 C 13.03125 19.109375 13 19.109375 12.972656 19.109375 C 12.828125 19.066406 12.773438 18.996094 12.679688 18.878906 C 12.652344 18.757812 12.65625 18.640625 12.660156 18.519531 C 12.660156 18.484375 12.660156 18.449219 12.660156 18.414062 C 12.664062 18.304688 12.664062 18.195312 12.667969 18.085938 C 12.667969 18.011719 12.667969 17.9375 12.671875 17.863281 C 12.671875 17.683594 12.675781 17.5 12.679688 17.320312 C 12.632812 17.3125 12.632812 17.3125 12.585938 17.300781 C 12.214844 17.222656 11.9375 16.980469 11.730469 16.675781 C 11.492188 16.285156 11.421875 15.867188 11.523438 15.425781 C 11.660156 14.96875 11.9375 14.613281 12.359375 14.386719 C 12.917969 14.132812 13.515625 14.210938 14.019531 14.558594 Z M 12.449219 15.320312 C 12.289062 15.503906 12.265625 15.65625 12.269531 15.894531 C 12.292969 16.117188 12.390625 16.285156 12.554688 16.433594 C 12.765625 16.578125 12.945312 16.621094 13.199219 16.601562 C 13.414062 16.527344 13.609375 16.441406 13.726562 16.238281 C 13.847656 15.992188 13.878906 15.785156 13.800781 15.519531 C 13.71875 15.324219 13.570312 15.199219 13.398438 15.078125 C 13.027344 14.957031 12.707031 15.03125 12.449219 15.320312 Z M 12.449219 15.320312 "/>
</g>
</svg>
